<svg width="30" height="19" viewBox="0 0 30 19" xmlns="http://www.w3.org/2000/svg">
  <g fill="none" fill-rule="evenodd">
    <path fill="#FFF" d="M0 18.66h29.961V0H0z"/>
    <path fill="#BD0034" d="M29.278 0L17.99 6.746h2.072l9.9-5.916V0zM19.594 12.289l10.367 6.193v-1.239l-8.296-4.954zM0 1.422l8.868 5.324h2.072L0 .181zM10.472 12.289L0 18.552v.108h1.89l10.653-6.371z"/>
    <path fill="#1A237B" d="M17.421 0v6.273L27.912 0zM2.34 0l10.448 6.273V0zM22.846 6.746h7.115v-4.28zM22.846 12.289l7.115 4.233V12.29zM2.933 18.66h9.856v-5.897zM17.421 18.66h9.887l-9.887-5.897zM0 12.289v4.424l7.364-4.424zM0 6.746h7.364L0 2.314z"/>
    <path fill="#BD0034" d="M13.715 0v7.855H0v3.326h13.715v7.479h2.78v-7.48H29.96V7.856H16.495V0z"/>
  </g>
</svg>
