<svg xmlns="http://www.w3.org/2000/svg" width="40" height="45">
  <g fill="#7C858C" fill-rule="evenodd">
    <path d="M16.087 3.258c-7.074 0-12.829 5.755-12.829 12.829 0 7.074 5.755 12.829 12.829 12.829 7.074 0 12.829-5.755 12.829-12.829 0-7.074-5.755-12.829-12.829-12.829m0 28.916C7.217 32.174 0 24.957 0 16.087 0 7.217 7.217 0 16.087 0c8.87 0 16.087 7.217 16.087 16.087 0 8.87-7.217 16.087-16.087 16.087"/>
    <path d="M36.802 44.348a3.113 3.113 0 0 1-2.262-.984L23.545 31.82c-1.249-1.311-1.249-3.438 0-4.75a3.092 3.092 0 0 1 4.524 0l10.994 11.545c1.25 1.311 1.25 3.438 0 4.75a3.113 3.113 0 0 1-2.261.983"/>
  </g>
</svg>
